<svg id="Layer_1" data-name="Layer 1" xmlns="http://www.w3.org/2000/svg" xmlns:xlink="http://www.w3.org/1999/xlink" viewBox="0 0 303.411 149.48"><defs><linearGradient id="Dégradé_sans_nom_6" x1="458.893" y1="357.793" x2="762.304" y2="357.793" gradientUnits="userSpaceOnUse"><stop offset="0" stop-color="#d4c9be"/><stop offset="0.01" stop-color="#d0c4b8"/><stop offset="0.14" stop-color="#9f8972"/><stop offset="0.2" stop-color="#8c7257"/><stop offset="0.382" stop-color="#a48c75"/><stop offset="0.65" stop-color="#ccb8a8"/><stop offset="0.848" stop-color="#a68e78"/><stop offset="1" stop-color="#8c7257"/></linearGradient></defs><path d="M742.228,358.8c-12.864.308-33.994,1.623-52.953,3.284-28.558-16.033-106.718-18.538-103.377-30.9,2.838-10.187,117.573-37.743,158.155-40.582,11.858-1-.334,8.851-19.205,16.032,3.674,1.336,38.912-9.352,37.409-19.54-1.169-7.849-39.414-3.339-86.008,5.512C617.128,303.8,568.529,319,570.7,332.693c2.839,17.535,69.475,21.377,101.206,30.9-35.739,2.839-96.53,15.532-131.936,24.884-111.561,29.393-91.52,46.595-37.91,43.756,91.687-6.179,197.569-31.9,197.068-57.618a12.317,12.317,0,0,0-3.34-7.515c13.165-1.606,26.8-1.362,43.86-1.934ZM489.7,423.044c-31.731.5-20.876-11.023,42.253-27.557,32.734-8.184,94.192-23.047,151.476-27.222,2.672,1.837,4.509,3.674,4.342,5.845C685.935,393.984,557.84,422.543,489.7,423.044Z" transform="translate(-458.893 -283.053)" style="fill:url(#Dégradé_sans_nom_6)"/></svg>