<svg id="Layer_1" data-name="Layer 1" xmlns="http://www.w3.org/2000/svg" xmlns:xlink="http://www.w3.org/1999/xlink" viewBox="0 0 787.321 206.865"><defs><linearGradient id="Dégradé_sans_nom_6" x1="243.34" y1="400" x2="1030.66" y2="400" gradientUnits="userSpaceOnUse"><stop offset="0" stop-color="#d4c9be"/><stop offset="0.01" stop-color="#d0c4b8"/><stop offset="0.14" stop-color="#9f8972"/><stop offset="0.2" stop-color="#8c7257"/><stop offset="0.382" stop-color="#a48c75"/><stop offset="0.65" stop-color="#ccb8a8"/><stop offset="0.848" stop-color="#a68e78"/><stop offset="1" stop-color="#8c7257"/></linearGradient></defs><path d="M576.932,373.58c-6.346-11.523-32.065,6.347-48.432,21.878,2.506-3.34,5.344-12.359,5.177-15.7a7.449,7.449,0,0,0-.257-1.436c.037-.142.068-.277.09-.4l-.218,0c-1.149-3.049-4.364-2.093-6.617.059-12.864.307-33.994,1.623-52.953,3.284C445.164,365.23,367,362.725,370.344,350.366c2.839-10.187,117.574-37.744,158.156-40.582,11.858-1-.334,8.851-19.2,16.032,3.673,1.336,38.912-9.352,37.409-19.54-1.169-7.849-39.414-3.34-86.008,5.511-59.121,11.19-107.72,26.388-105.549,40.082,2.839,17.536,69.475,21.377,101.206,30.9-35.74,2.84-96.53,15.533-131.936,24.885-111.561,29.393-91.52,46.6-37.91,43.756,91.687-6.18,197.569-31.9,197.068-57.618a12.323,12.323,0,0,0-3.34-7.515c13.165-1.606,26.8-1.362,43.86-1.934-1.26,7.8-7.788,18.275-20.646,36.338-14.028,19.54-29.226,45.258-43.422,77.992-2.171,5.177,7.349,7.014,9.352,1,8.685-25.218,39.582-74.152,54.779-91.186a5.489,5.489,0,0,0,1.169,2.672c2,2.839,5.679,2.5,12.192-.5C548.207,405.812,583.111,385.1,576.932,373.58ZM274.148,442.221c-31.731.5-20.876-11.023,42.253-27.557,32.733-8.184,94.192-23.047,151.476-27.222,2.672,1.837,4.509,3.674,4.342,5.845C470.382,413.161,342.287,441.72,274.148,442.221ZM528.834,403.14c15.2-11.523,32.4-24.716,34.738-22.044C565.409,383.6,538.521,405.144,528.834,403.14Zm73.988-9.352c-14.361,12.358-21.877,14.029-25.718,14.363-4.008.334-8.183-3.842-6.179-9.686,3.173-9.186,24.383-25.219,34.4-25.72,4.008-.334,5.512,1,5.846,2.339.334,1.5,2.5,1.5,2.338,3.173-14.195,2.338-31.565,16.366-30.229,19.707.5,1.169,16.7-8.351,25.385-15.533,1.17-2.338,2.672-2.171,4.676-1,1.838,1,6.514.335,4.344,2.672-6.514,9.854-6.18,13.7-2.172,13.863,3.34.167,13.027-4.176,20.709-11.023-9.02,10.188-16.033,16.366-23.883,18.036-10.02,2.172-9.186-8.85-5.844-16.366C592.969,397.964,599.985,395.625,602.822,393.788ZM910.016,380.6c3.174-4.676-.5-7.182-.834-9.019-.334-1.67-2.172-2.5-4.342-1.336-2.172,1-7.684,12.024-13.027,20.375-2.506,3.674-5.344,3.507.168-1.837-5.012,3.841-17.2,12.526-21.043,13.361-3.467.866,3.553-10.746,10.591-18.549a7.989,7.989,0,0,0,4.772-5.667c-.09,0-.189,0-.28,0,.705-4.051-5.137-7.859-7.236-5.342-1.63,1.84-3.2,3.705-4.683,5.568-12.913.485-31.076,1.67-47.59,3.117-28.559-16.033-106.717-18.538-103.377-30.9,2.838-10.187,117.572-37.744,158.156-40.582,11.858-1-.334,8.851-19.207,16.032,3.674,1.336,38.914-9.352,37.41-19.54-1.17-7.849-39.414-3.34-86.01,5.511-59.119,11.19-107.718,26.388-105.548,40.082,2.839,17.536,69.476,21.377,101.207,30.9-35.739,2.84-96.53,15.533-131.936,24.885-111.561,29.393-91.52,46.6-37.91,43.756,91.687-6.18,197.57-31.9,197.068-57.618a12.328,12.328,0,0,0-3.34-7.515c11.158-1.361,22.651-1.392,36.281-1.718-7.425,10.616-11.349,20.033-8.056,22.594,4.51,3.34,11.524,2.839,26.221-8.183-8.686,14.195.5,17.034,5.678,16.533C887.637,412.493,898.994,395.625,910.016,380.6ZM626.938,442.221c-31.731.5-20.875-11.023,42.254-27.557,32.732-8.184,94.191-23.047,151.474-27.222,2.672,1.837,4.51,3.674,4.342,5.845C823.172,413.161,695.076,441.72,626.938,442.221Zm312.144-87.012c3.842-5.678,9.354-10.02,12.693-11.523,3.506-1.336,10.188,3.173,5.512,6.346-6.847,6.013-13.361,6.681-17.537,10.355C935.742,364.228,935.242,361.054,939.082,355.209Zm43.59,20.209c-4.01,1.336-10.689,3.507-15.867,4.675-13.861,19.04-37.576,52.441-37.576,58.788,0,3.84-12.86,3.34-9.854-3.842,1.838-5.511,21.377-33.235,35.238-53.443-2.338.5-12.191,2.338-18.371,2.171-3.1.372-5.087-.888-5.97-2.619-10.731,11.558-19.776,24.7-19.914,30.677.166,4.342-4.176,4.843-7.348.5-3.342-4.175,7.848-23.214,25.551-41.752,3.388-2.742,13.317-1.9,8.872,3.28,5.4-.227,18.514-1.039,23.36-1.61,32.4-43.255,40.25-59.956,43.756-68.974,3.508-9.185,13.7-8.183,12.025-1.5-7.349,19.206-28.892,49.1-43.421,69.141,7.347-1,15.2-3.006,17.7-4.175C994.028,365.564,991.356,372.578,982.672,375.418Zm42.25,12.024c-17.7,14.029-39.412,20.041-40.748,13.695a6.477,6.477,0,0,1,1.5-4.342c17.035-2,30.562-10.689,33.736-18.2,3.506-7.85-7.849-8.518-17.2-4.51-9.519,3.675-34.236,22.714-29.059,31.4,6.346,11.19,35.073,2,54.112-16.366C1033.774,382.431,1029.766,383.433,1024.922,387.442Zm-16.365-7.682c1.836,1.169-8.686,8.684-18.873,11.69C995.529,386.106,1007.221,378.925,1008.557,379.76Z" transform="translate(-243.34 -296.567)" style="fill:url(#Dégradé_sans_nom_6)"/><path d="M784.133,453.61l9.1,24.195,9.056-24.195h5.066l-12.085,30.195H791.19L779.068,453.61Z" transform="translate(-243.34 -296.567)" style="fill:#fff"/><path d="M841.119,483.805V453.61h4.761v30.195Z" transform="translate(-243.34 -296.567)" style="fill:#fff"/><path d="M882.283,468.493a15.772,15.772,0,0,1,.982-5.421,14.908,14.908,0,0,1,2.868-4.85,14.564,14.564,0,0,1,4.616-3.467,14.008,14.008,0,0,1,6.166-1.317,13.155,13.155,0,0,1,7.061,1.827,11.888,11.888,0,0,1,4.419,4.764l-3.739,2.507a8.479,8.479,0,0,0-1.532-2.289,7.45,7.45,0,0,0-1.957-1.493,8.431,8.431,0,0,0-2.214-.788,11.4,11.4,0,0,0-2.2-.234,8.777,8.777,0,0,0-4.17.956,9.31,9.31,0,0,0-3,2.532,11.43,11.43,0,0,0-1.828,3.53,12.99,12.99,0,0,0-.616,3.916,12.276,12.276,0,0,0,.721,4.209,11.563,11.563,0,0,0,2.021,3.53,10.013,10.013,0,0,0,3.091,2.448,8.442,8.442,0,0,0,3.9.914,10.312,10.312,0,0,0,2.281-.277,8.831,8.831,0,0,0,2.255-.9,9.245,9.245,0,0,0,2-1.548,7.955,7.955,0,0,0,1.515-2.256l3.946,2.256a9.186,9.186,0,0,1-2.038,2.99,12.855,12.855,0,0,1-2.977,2.192,15.508,15.508,0,0,1-3.5,1.363,14.932,14.932,0,0,1-3.645.464,12.473,12.473,0,0,1-5.822-1.357,15.265,15.265,0,0,1-4.549-3.551,16.352,16.352,0,0,1-2.973-4.972A15.716,15.716,0,0,1,882.283,468.493Z" transform="translate(-243.34 -296.567)" style="fill:#fff"/><path d="M969.594,453.61v30.195h-4.807V470.493H949.562v13.312H944.8V453.61h4.764v12.628h15.225V453.61Z" transform="translate(-243.34 -296.567)" style="fill:#fff"/><path d="M1008.671,453.61l8.335,15.139,8.427-15.139h5.227L1019.391,473v10.805h-4.766V472.917l-11.181-19.307Z" transform="translate(-243.34 -296.567)" style="fill:#fff"/></svg>